<svg width="351" height="257" viewBox="0 0 351 257" fill="none" xmlns="http://www.w3.org/2000/svg">
<path opacity="0.5" d="M174.814 255.946C223.063 255.946 262.177 249.371 262.177 241.26C262.177 233.15 223.063 226.575 174.814 226.575C126.565 226.575 87.4506 233.15 87.4506 241.26C87.4506 249.371 126.565 255.946 174.814 255.946Z" fill="#DEE3F3"/>
<g opacity="0.45">
<path opacity="0.45" d="M153.831 88.4422C153.832 88.6064 153.843 88.7703 153.865 88.933C153.843 88.7703 153.832 88.6064 153.831 88.4422Z" fill="#8F94FB"/>
<path opacity="0.45" d="M197.825 77.8937C197.831 77.9376 197.84 77.9808 197.845 78.0251C197.84 77.9808 197.831 77.9376 197.825 77.8937Z" fill="#8F94FB"/>
<path opacity="0.45" d="M197.733 77.4588C197.746 77.5043 197.758 77.5501 197.769 77.5964C197.758 77.5501 197.746 77.5044 197.733 77.4588Z" fill="#8F94FB"/>
<path opacity="0.45" d="M197.779 89.2677C197.762 89.343 197.743 89.4174 197.722 89.4909C197.743 89.4173 197.762 89.3431 197.779 89.2677Z" fill="#8F94FB"/>
<path opacity="0.45" d="M197.841 88.9074C197.831 88.9875 197.819 89.067 197.804 89.1455C197.819 89.067 197.831 88.9876 197.841 88.9074Z" fill="#8F94FB"/>
<path opacity="0.45" d="M155.865 91.7948C155.572 91.6412 155.3 91.4499 155.057 91.2259C155.3 91.4501 155.572 91.6413 155.865 91.7948V91.7948Z" fill="#8F94FB"/>
<path opacity="0.45" d="M155.027 91.1989C154.913 91.0917 154.805 90.9774 154.705 90.8569C154.805 90.9775 154.913 91.0917 155.027 91.1989Z" fill="#8F94FB"/>
<path opacity="0.45" d="M219.949 163.394C219.905 163.245 219.851 163.098 219.788 162.955C219.851 163.098 219.905 163.245 219.949 163.394V163.394Z" fill="#8F94FB"/>
<path opacity="0.45" d="M218.07 161.117C218.219 161.195 218.363 161.283 218.5 161.38C218.363 161.283 218.219 161.195 218.07 161.117V161.117Z" fill="#8F94FB"/>
<path opacity="0.45" d="M218.915 161.72C219.146 161.938 219.348 162.183 219.518 162.451C219.349 162.183 219.146 161.938 218.915 161.72Z" fill="#8F94FB"/>
<path opacity="0.45" d="M218.513 161.39C218.639 161.48 218.758 161.577 218.872 161.681C218.758 161.577 218.639 161.48 218.513 161.39V161.39Z" fill="#8F94FB"/>
<path opacity="0.45" d="M219.756 162.888C219.699 162.765 219.636 162.646 219.567 162.53C219.636 162.646 219.699 162.765 219.756 162.888V162.888Z" fill="#8F94FB"/>
<path opacity="0.45" d="M220.053 163.861C220.033 163.735 220.006 163.61 219.973 163.487C220.006 163.61 220.033 163.735 220.053 163.861V163.861Z" fill="#8F94FB"/>
<path opacity="0.45" d="M333.914 143.145H312.191C312.693 142.798 313.103 142.334 313.386 141.793C313.669 141.252 313.817 140.65 313.817 140.04V130.06C313.817 129.563 313.719 129.071 313.529 128.612C313.339 128.154 313.061 127.737 312.71 127.385C312.359 127.034 311.942 126.756 311.484 126.566C311.025 126.376 310.534 126.278 310.037 126.278H285.035C285.798 126.034 286.465 125.553 286.937 124.906C287.41 124.258 287.665 123.477 287.665 122.675V112.695C287.666 112.084 287.518 111.483 287.235 110.942C286.952 110.401 286.542 109.937 286.04 109.589H310.037C310.534 109.589 311.025 109.492 311.484 109.301C311.942 109.111 312.359 108.833 312.71 108.482C313.061 108.13 313.339 107.713 313.529 107.255C313.719 106.796 313.817 106.304 313.817 105.807V95.8273C313.817 95.3306 313.719 94.8388 313.529 94.3799C313.339 93.9211 313.061 93.5041 312.71 93.1529C312.359 92.8017 311.942 92.5231 311.484 92.3331C311.025 92.143 310.534 92.0452 310.037 92.0452H283.324C284.088 91.8013 284.754 91.3208 285.227 90.6732C285.7 90.0256 285.955 89.2443 285.955 88.4422V78.4623C285.955 77.8517 285.807 77.2502 285.524 76.7094C285.241 76.1685 284.831 75.7044 284.33 75.3568H310.037C310.534 75.3568 311.025 75.259 311.484 75.0689C311.942 74.8788 312.359 74.6002 312.71 74.249C313.061 73.8978 313.339 73.4809 313.529 73.022C313.719 72.5632 313.817 72.0714 313.817 71.5747V61.5947C313.817 61.0981 313.719 60.6063 313.529 60.1474C313.339 59.6885 313.061 59.2716 312.71 58.9204C312.359 58.5692 311.942 58.2906 311.484 58.1005C311.025 57.9105 310.534 57.8127 310.037 57.8127H296.58C297.343 57.5688 298.009 57.0883 298.482 56.4407C298.955 55.7931 299.21 55.0118 299.21 54.2097V44.2297C299.21 43.7331 299.112 43.2412 298.922 42.7824C298.733 42.3235 298.454 41.9066 298.103 41.5554C297.752 41.2042 297.336 40.9256 296.877 40.7355C296.419 40.5455 295.927 40.4476 295.431 40.4476H258.948C258.452 40.4476 257.96 40.5454 257.502 40.7355C257.043 40.9256 256.627 41.2042 256.276 41.5554C255.925 41.9066 255.646 42.3235 255.456 42.7824C255.266 43.2412 255.169 43.7331 255.169 44.2297C255.169 43.7331 255.071 43.2413 254.881 42.7824C254.691 42.3235 254.413 41.9066 254.062 41.5554C253.711 41.2042 253.294 40.9256 252.836 40.7355C252.377 40.5454 251.886 40.4476 251.389 40.4476H214.907C214.187 40.448 213.482 40.6543 212.875 41.0423C212.268 41.4303 211.785 41.9838 211.482 42.6376C211.53 42.8801 211.555 43.1267 211.555 43.3739V53.3539C211.554 53.9032 211.434 54.4458 211.201 54.9434C211.371 55.8051 211.836 56.5805 212.516 57.136H221.886C222.759 57.1348 223.605 57.4373 224.279 57.9918H228.364C227.601 58.2357 226.934 58.7162 226.462 59.3638C225.989 60.0114 225.734 60.7926 225.734 61.5947C225.733 61.3541 225.709 61.1142 225.663 60.8781C225.663 60.8916 225.665 60.9046 225.665 60.9181V70.898C225.664 71.2164 225.623 71.5332 225.542 71.8411C225.603 71.9054 225.657 71.9752 225.704 72.0499C225.724 71.8922 225.734 71.7335 225.734 71.5747C225.736 71.794 225.757 72.0127 225.797 72.2283C225.847 72.3486 225.876 72.4767 225.882 72.6069C226.12 73.4479 226.642 74.1804 227.359 74.6801H224.109C224.138 74.6599 224.164 74.6355 224.192 74.6144C223.89 74.622 223.586 74.5889 223.284 74.5855C223.176 74.5842 223.069 74.5621 222.97 74.5204C222.618 74.6261 222.253 74.6799 221.886 74.6801L199.497 75.3568C198.996 75.7044 198.586 76.1685 198.303 76.7093C198.02 77.2502 197.872 77.8517 197.872 78.4622V88.4422C197.872 89.2443 198.127 90.0256 198.6 90.6732C199.073 91.3208 199.739 91.8013 200.503 92.0451L221.886 92.2243C222.262 92.2242 222.636 92.2802 222.995 92.3906C223.234 92.4114 223.47 92.453 223.702 92.5148C223.719 92.5109 223.737 92.5093 223.755 92.5057C223.547 92.3915 223.329 92.2973 223.103 92.2243H228.364C227.601 92.4682 226.934 92.9487 226.462 93.5963C225.989 94.2439 225.734 95.0252 225.734 95.8272C225.733 95.6079 225.714 95.3891 225.676 95.1731C225.651 95.2091 225.623 95.2431 225.593 95.2747C225.641 95.5157 225.665 95.7608 225.665 96.0064V105.986C225.665 106.449 225.734 106.338 225.734 105.807C225.734 106.418 225.881 107.019 226.164 107.56C226.447 108.101 226.857 108.565 227.359 108.913L240.7 109.341C241.157 109.341 241.611 109.426 242.038 109.589H245.249C244.674 109.991 244.222 110.545 243.943 111.188C244.294 111.773 244.479 112.441 244.479 113.123V123.103C244.479 123.624 244.371 124.139 244.162 124.616C244.635 125.406 245.379 125.996 246.254 126.278H242.749C242.139 126.674 241.427 126.885 240.7 126.885H227.465C226.934 127.227 226.497 127.696 226.195 128.251C225.892 128.806 225.734 129.428 225.734 130.06C225.734 128.727 225.238 141.862 225.238 141.862C225.238 143.041 245.831 143.573 245.831 143.573C246.354 143.573 246.872 143.682 247.35 143.894C247.565 143.848 247.785 143.829 248.005 143.837C247.998 143.833 247.992 143.827 247.985 143.822H251.235C250.734 144.169 250.324 144.634 250.041 145.174C249.758 145.715 249.61 146.317 249.61 146.927C249.609 146.747 249.595 146.567 249.568 146.388C249.55 146.429 249.532 146.47 249.512 146.509C249.576 146.786 249.609 147.07 249.61 147.355V156.907C249.61 157.404 249.708 157.896 249.898 158.355C250.088 158.814 250.366 159.23 250.717 159.582C251.068 159.933 251.485 160.211 251.943 160.402C252.402 160.592 252.893 160.689 253.389 160.689H247.573C247.035 160.971 246.438 161.117 245.831 161.117H222.144C221.53 161.436 221.015 161.918 220.656 162.509C220.297 163.101 220.107 163.779 220.107 164.472V174.451C220.107 174.948 220.204 175.44 220.394 175.899C220.584 176.358 220.863 176.775 221.214 177.126C221.564 177.477 221.981 177.756 222.44 177.946C222.898 178.136 223.39 178.234 223.886 178.234H260.369C260.865 178.234 261.356 178.136 261.815 177.946C262.274 177.756 262.69 177.477 263.041 177.126C263.392 176.775 263.67 176.358 263.86 175.899C264.05 175.44 264.148 174.948 264.148 174.451C264.148 174.948 264.246 175.44 264.436 175.899C264.626 176.358 264.904 176.775 265.255 177.126C265.606 177.477 266.023 177.756 266.481 177.946C266.94 178.136 267.431 178.234 267.927 178.234H304.41C304.907 178.234 305.398 178.136 305.856 177.946C306.315 177.756 306.732 177.477 307.083 177.126C307.434 176.775 307.712 176.358 307.902 175.899C308.092 175.44 308.189 174.948 308.189 174.451V164.472C308.189 163.975 308.092 163.483 307.902 163.024C307.712 162.565 307.434 162.148 307.083 161.797C306.732 161.446 306.315 161.167 305.856 160.977C305.398 160.787 304.907 160.689 304.41 160.689H333.914C334.41 160.689 334.901 160.592 335.36 160.402C335.819 160.211 336.235 159.933 336.586 159.582C336.937 159.23 337.215 158.814 337.405 158.355C337.595 157.896 337.693 157.404 337.693 156.907V146.927C337.693 146.431 337.595 145.939 337.405 145.48C337.215 145.021 336.937 144.604 336.586 144.253C336.235 143.902 335.819 143.623 335.36 143.433C334.901 143.243 334.41 143.145 333.914 143.145V143.145ZM243.539 75.3568C243.037 75.7044 242.627 76.1685 242.344 76.7094C242.061 77.2502 241.913 77.8517 241.914 78.4623C241.914 77.8517 241.766 77.2502 241.483 76.7094C241.2 76.1685 240.79 75.7044 240.288 75.3568H243.539ZM239.283 92.0452C240.046 91.8013 240.713 91.3208 241.186 90.6732C241.658 90.0256 241.913 89.2443 241.914 88.4422C241.914 89.2443 242.169 90.0256 242.641 90.6732C243.114 91.3208 243.781 91.8013 244.544 92.0452H239.283ZM252.538 57.8127C253.302 57.5688 253.968 57.0883 254.441 56.4407C254.914 55.7931 255.169 55.0118 255.169 54.2097C255.169 55.0118 255.424 55.7931 255.897 56.4407C256.369 57.0883 257.036 57.5688 257.799 57.8127H252.538ZM264.148 164.472C264.148 163.975 264.05 163.483 263.86 163.024C263.67 162.565 263.392 162.148 263.041 161.797C262.69 161.446 262.274 161.167 261.815 160.977C261.357 160.787 260.865 160.689 260.369 160.689H267.927C267.431 160.689 266.94 160.787 266.481 160.977C266.023 161.167 265.606 161.446 265.255 161.797C264.904 162.148 264.626 162.565 264.436 163.024C264.246 163.483 264.148 163.975 264.148 164.472V164.472ZM268.15 143.145C268.652 142.798 269.061 142.334 269.345 141.793C269.628 141.252 269.775 140.65 269.775 140.04C269.775 140.65 269.923 141.252 270.206 141.793C270.489 142.334 270.899 142.798 271.4 143.145H268.15ZM269.775 130.06C269.775 129.258 269.52 128.476 269.047 127.829C268.574 127.181 267.908 126.701 267.145 126.457H272.406C271.642 126.701 270.976 127.181 270.503 127.829C270.03 128.476 269.775 129.258 269.775 130.06V130.06ZM268.15 108.913C268.652 108.565 269.061 108.101 269.345 107.56C269.628 107.019 269.775 106.418 269.775 105.807C269.775 106.418 269.923 107.019 270.206 107.56C270.489 108.101 270.899 108.565 271.4 108.913H268.15ZM269.775 95.8273C269.775 95.0252 269.52 94.244 269.047 93.5963C268.574 92.9487 267.908 92.4682 267.145 92.2243H272.406C271.642 92.4682 270.976 92.9487 270.503 93.5963C270.03 94.2439 269.775 95.0252 269.775 95.8273V95.8273ZM268.15 74.6802C268.652 74.3326 269.061 73.8685 269.345 73.3276C269.628 72.7868 269.775 72.1853 269.775 71.5747C269.775 72.1853 269.923 72.7868 270.206 73.3276C270.489 73.8685 270.899 74.3326 271.4 74.6802H268.15ZM269.775 61.5947C269.775 60.7927 269.52 60.0114 269.047 59.3638C268.574 58.7162 267.908 58.2357 267.145 57.9918H272.406C271.642 58.2357 270.976 58.7162 270.503 59.3638C270.03 60.0114 269.775 60.7927 269.775 61.5947V61.5947ZM295.277 143.822C294.775 144.169 294.365 144.634 294.082 145.174C293.799 145.715 293.651 146.317 293.652 146.927C293.652 146.317 293.504 145.715 293.221 145.174C292.938 144.634 292.528 144.169 292.026 143.822H295.277ZM289.872 160.689C290.369 160.689 290.86 160.592 291.319 160.402C291.777 160.211 292.194 159.933 292.545 159.582C292.896 159.23 293.174 158.814 293.364 158.355C293.554 157.896 293.652 157.404 293.652 156.907C293.652 157.404 293.749 157.896 293.939 158.355C294.129 158.814 294.408 159.23 294.758 159.582C295.109 159.933 295.526 160.211 295.985 160.402C296.443 160.592 296.934 160.689 297.431 160.689H289.872Z" fill="#8F94FB"/>
<path opacity="0.45" d="M220.107 164.472C220.105 164.31 220.094 164.15 220.073 163.99C220.094 164.15 220.105 164.31 220.107 164.472Z" fill="#8F94FB"/>
<path opacity="0.45" d="M197.872 88.4422C197.872 88.5621 197.865 88.6802 197.854 88.7972C197.865 88.6802 197.872 88.5621 197.872 88.4422Z" fill="#8F94FB"/>
<path opacity="0.45" d="M153.874 89.0062C153.897 89.158 153.929 89.3082 153.971 89.456C153.929 89.3082 153.897 89.158 153.874 89.0062V89.0062Z" fill="#8F94FB"/>
<path opacity="0.45" d="M111.581 111.306C111.518 111.25 111.464 111.186 111.42 111.114C111.365 111.017 111.329 110.91 111.312 110.799C111.303 111.058 111.307 111.318 111.324 111.576C111.439 111.938 111.498 112.315 111.499 112.695C111.501 112.326 111.557 111.959 111.665 111.607C111.631 111.521 111.604 111.433 111.586 111.342C111.583 111.33 111.583 111.318 111.581 111.306Z" fill="#8F94FB"/>
<path opacity="0.45" d="M163.307 40.4476H126.824C126.327 40.4476 125.836 40.5455 125.377 40.7355C124.919 40.9256 124.502 41.2042 124.151 41.5554C123.8 41.9066 123.522 42.3235 123.332 42.7824C123.142 43.2412 123.044 43.7331 123.044 44.2297C123.044 43.7331 122.947 43.2412 122.757 42.7824C122.567 42.3235 122.288 41.9066 121.937 41.5554C121.586 41.2042 121.17 40.9256 120.711 40.7355C120.253 40.5455 119.761 40.4476 119.265 40.4476H82.7822C82.2859 40.4476 81.7945 40.5455 81.3359 40.7355C80.8774 40.9256 80.4608 41.2042 80.1098 41.5554C79.7589 41.9066 79.4805 42.3235 79.2906 42.7824C79.1007 43.2412 79.0029 43.7331 79.0029 44.2297V54.2097C79.0031 55.0118 79.258 55.7931 79.7308 56.4407C80.2037 57.0883 80.8699 57.5688 81.6335 57.8126H53.3472C52.8509 57.8126 52.3595 57.9105 51.901 58.1005C51.4424 58.2906 51.0258 58.5692 50.6749 58.9204C50.3239 59.2716 50.0456 59.6885 49.8556 60.1474C49.6657 60.6062 49.5679 61.098 49.5679 61.5947V71.5747C49.5678 72.1853 49.7155 72.7868 49.9986 73.3276C50.2817 73.8685 50.6915 74.3326 51.1931 74.6802H25.4855C24.9892 74.6802 24.4978 74.778 24.0393 74.968C23.5807 75.1581 23.1641 75.4367 22.8132 75.7879C22.4622 76.1391 22.1839 76.5561 21.9939 77.0149C21.804 77.4738 21.7063 77.9656 21.7063 78.4623V88.4422C21.7063 88.9389 21.804 89.4307 21.9939 89.8896C22.1839 90.3484 22.4622 90.7654 22.8132 91.1166C23.1641 91.4678 23.5807 91.7464 24.0393 91.9364C24.4978 92.1265 24.9892 92.2243 25.4855 92.2243H52.1984C51.4349 92.4682 50.7687 92.9487 50.2958 93.5963C49.823 94.2439 49.5681 95.0252 49.5679 95.8272V105.807C49.5678 106.418 49.7155 107.019 49.9986 107.56C50.2817 108.101 50.6916 108.565 51.1931 108.913H27.1959C26.6996 108.913 26.2081 109.011 25.7496 109.201C25.2911 109.391 24.8745 109.669 24.5235 110.02C24.1726 110.372 23.8942 110.789 23.7043 111.247C23.5143 111.706 23.4166 112.198 23.4166 112.695V122.675C23.4166 123.171 23.5143 123.663 23.7043 124.122C23.8942 124.581 24.1726 124.998 24.5235 125.349C24.8745 125.7 25.2911 125.979 25.7496 126.169C26.2081 126.359 26.6996 126.457 27.1959 126.457H52.1984C51.4349 126.701 50.7687 127.181 50.2958 127.829C49.823 128.476 49.5681 129.258 49.5679 130.06V140.04C49.5679 140.536 49.6657 141.028 49.8556 141.487C50.0456 141.946 50.3239 142.363 50.6749 142.714C51.0258 143.065 51.4424 143.344 51.901 143.534C52.3595 143.724 52.8509 143.822 53.3472 143.822H75.0694C74.5678 144.169 74.158 144.634 73.8749 145.174C73.5919 145.715 73.4441 146.317 73.4443 146.927V156.907C73.4443 157.91 73.8424 158.872 74.5512 159.582C75.2599 160.291 76.2212 160.689 77.2235 160.689H47.7201C47.2237 160.689 46.7323 160.787 46.2738 160.977C45.8153 161.167 45.3986 161.446 45.0477 161.797C44.6968 162.148 44.4184 162.565 44.2284 163.024C44.0385 163.483 43.9408 163.975 43.9408 164.472V174.451C43.9408 174.948 44.0385 175.44 44.2284 175.899C44.4184 176.358 44.6968 176.775 45.0477 177.126C45.3986 177.477 45.8153 177.756 46.2738 177.946C46.7323 178.136 47.2237 178.234 47.7201 178.234H84.2029C84.6992 178.234 85.1907 178.136 85.6492 177.946C86.1077 177.756 86.5244 177.477 86.8753 177.126C87.2262 176.775 87.5046 176.358 87.6946 175.899C87.8845 175.44 87.9822 174.948 87.9822 174.451C87.9822 174.948 88.08 175.44 88.2699 175.899C88.4598 176.358 88.7382 176.775 89.0892 177.126C89.4401 177.477 89.8567 177.756 90.3152 177.946C90.7738 178.136 91.2652 178.234 91.7615 178.234H128.244C128.741 178.234 129.232 178.136 129.691 177.946C130.149 177.756 130.566 177.477 130.917 177.126C131.268 176.775 131.546 176.358 131.736 175.899C131.926 175.44 132.024 174.948 132.024 174.451V164.472C132.024 163.779 131.834 163.101 131.474 162.509C131.115 161.918 130.601 161.436 129.987 161.117H122.12C121.513 161.117 120.916 160.971 120.378 160.689H113.706C114.709 160.689 115.67 160.291 116.379 159.582C117.088 158.872 117.486 157.91 117.486 156.907C117.486 158.553 118.341 147.355 118.341 147.355C118.341 146.859 118.439 146.367 118.629 145.908C118.818 145.449 119.097 145.032 119.448 144.681C119.799 144.33 120.215 144.051 120.674 143.861C121.132 143.671 121.624 143.573 122.12 143.573L136.026 143.145C136.422 142.867 136.762 142.516 137.027 142.111C136.83 141.648 136.728 141.15 136.727 140.647V130.667C136.726 129.927 136.944 129.203 137.352 128.586C137.055 127.888 136.556 127.296 135.919 126.885H116.134C115.407 126.885 114.695 126.674 114.085 126.278H108.869C109.632 126.034 110.299 125.553 110.772 124.906C111.244 124.258 111.499 123.477 111.499 122.675L111.366 112.768C111.366 112.321 111.342 111.926 111.324 111.576C111.075 110.771 110.565 110.072 109.874 109.589H113.125C113.1 109.606 113.079 109.627 113.054 109.645C114.897 109.539 135.945 108.303 137.656 106.925C137.612 106.664 137.604 106.397 137.631 106.133C137.6 105.943 137.584 105.751 137.582 105.558V95.5785C137.582 95.4547 137.589 95.3324 137.601 95.2116C137.487 94.5243 137.186 93.8818 136.73 93.3547C136.275 92.8276 135.683 92.4365 135.02 92.2243H139.619C140.157 91.9431 140.755 91.7963 141.362 91.7964H151.793C152.407 91.4777 152.922 90.9963 153.281 90.4048C153.641 89.8133 153.831 89.1344 153.831 88.4422V78.4623C153.831 77.8517 153.683 77.2502 153.4 76.7094C153.117 76.1685 152.707 75.7044 152.205 75.3568L141.362 74.6802C139.524 74.6802 138.308 74.0066 139.276 74.6802H136.026C136.524 74.3346 136.932 73.874 137.214 73.3373C137.497 72.8007 137.646 72.2037 137.649 71.5971C137.606 71.3666 137.583 71.1326 137.582 70.8981V60.9181C137.582 60.9099 137.583 60.902 137.584 60.8939C137.457 60.224 137.152 59.6008 136.701 59.09C136.25 58.5792 135.669 58.1998 135.02 57.9918H138.968C139.643 57.4374 140.489 57.1348 141.362 57.136H165.697C166.131 56.7822 166.481 56.336 166.721 55.8298C166.962 55.3236 167.086 54.7701 167.086 54.2097V44.2297C167.086 43.7331 166.988 43.2413 166.798 42.7824C166.608 42.3235 166.33 41.9066 165.979 41.5554C165.628 41.2042 165.211 40.9256 164.753 40.7355C164.294 40.5455 163.803 40.4476 163.307 40.4476V40.4476ZM67.3729 75.3568C66.8713 75.7044 66.4614 76.1685 66.1784 76.7094C65.8953 77.2502 65.7475 77.8517 65.7477 78.4623C65.7479 77.8517 65.6001 77.2502 65.3171 76.7094C65.034 76.1685 64.6241 75.7044 64.1225 75.3568H67.3729ZM65.7477 88.4422C65.7479 89.2443 66.0027 90.0256 66.4756 90.6732C66.9484 91.3208 67.6147 91.8013 68.3783 92.0452H63.1172C63.8807 91.8013 64.547 91.3208 65.0198 90.6732C65.4927 90.0256 65.7476 89.2443 65.7477 88.4422V88.4422ZM69.0832 109.589C68.5816 109.937 68.1717 110.401 67.8887 110.942C67.6056 111.483 67.4579 112.084 67.4581 112.695C67.4582 112.084 67.3105 111.483 67.0274 110.942C66.7444 110.401 66.3345 109.937 65.8329 109.589H69.0832ZM64.8275 126.278C65.591 126.034 66.2573 125.553 66.7302 124.906C67.203 124.258 67.4579 123.477 67.4581 122.675C67.4582 123.477 67.7131 124.258 68.1859 124.906C68.6588 125.553 69.3251 126.034 70.0886 126.278H64.8275ZM111.414 75.3568C110.913 75.7044 110.503 76.1685 110.22 76.7094C109.937 77.2502 109.789 77.8517 109.789 78.4623C109.789 77.8517 109.642 77.2502 109.359 76.7094C109.075 76.1685 108.666 75.7044 108.164 75.3568H111.414ZM87.9822 164.472C87.9822 163.975 87.8845 163.483 87.6946 163.024C87.5046 162.565 87.2262 162.148 86.8753 161.797C86.5244 161.446 86.1077 161.167 85.6492 160.977C85.1907 160.787 84.6992 160.689 84.2029 160.689H91.7615C91.2652 160.689 90.7738 160.787 90.3152 160.977C89.8567 161.167 89.4401 161.446 89.0892 161.797C88.7382 162.148 88.4598 162.565 88.2699 163.024C88.08 163.483 87.9822 163.975 87.9822 164.472V164.472ZM91.9842 143.145C92.4858 142.798 92.8957 142.334 93.1787 141.793C93.4618 141.252 93.6096 140.65 93.6094 140.04C93.6092 140.65 93.757 141.252 94.0401 141.793C94.3231 142.334 94.733 142.798 95.2346 143.145H91.9842ZM93.6094 130.06C93.6092 129.258 93.3543 128.476 92.8815 127.829C92.4087 127.181 91.7424 126.701 90.9789 126.457H96.2399C95.4764 126.701 94.8101 127.181 94.3373 127.829C93.8645 128.476 93.6096 129.258 93.6094 130.06V130.06ZM91.9842 108.913C92.4858 108.565 92.8957 108.101 93.1787 107.56C93.4618 107.019 93.6096 106.418 93.6094 105.807C93.6092 106.418 93.757 107.019 94.0401 107.56C94.3231 108.101 94.733 108.565 95.2346 108.913H91.9842ZM93.6094 95.8273C93.6092 95.0252 93.3543 94.2439 92.8815 93.5963C92.4087 92.9487 91.7424 92.4682 90.9789 92.2243H96.2399C95.4764 92.4682 94.8101 92.9487 94.3373 93.5963C93.8645 94.2439 93.6096 95.0252 93.6094 95.8273V95.8273ZM91.9842 74.6802C92.4858 74.3326 92.8957 73.8685 93.1787 73.3276C93.4618 72.7868 93.6096 72.1853 93.6094 71.5747C93.6092 72.1853 93.757 72.7868 94.0401 73.3276C94.3231 73.8685 94.733 74.3326 95.2346 74.6802H91.9842ZM93.6094 61.5947C93.6092 60.7927 93.3543 60.0114 92.8815 59.3638C92.4087 58.7162 91.7424 58.2357 90.9789 57.9918H96.2399C95.4764 58.2357 94.8101 58.7162 94.3373 59.3638C93.8645 60.0114 93.6096 60.7927 93.6094 61.5947V61.5947ZM107.159 92.0452C107.922 91.8013 108.588 91.3208 109.061 90.6732C109.534 90.0256 109.789 89.2443 109.789 88.4422C109.789 89.2443 110.044 90.0256 110.517 90.6732C110.99 91.3208 111.656 91.8013 112.42 92.0452H107.159ZM120.414 57.8127C121.177 57.5688 121.844 57.0883 122.316 56.4407C122.789 55.7931 123.044 55.0118 123.044 54.2097C123.045 55.0118 123.299 55.7931 123.772 56.4407C124.245 57.0883 124.911 57.5688 125.675 57.8127H120.414Z" fill="#8F94FB"/>
<path opacity="0.45" d="M155.073 75.6658C155.091 75.6492 155.109 75.6322 155.128 75.6159C155.109 75.6322 155.091 75.6492 155.073 75.6658Z" fill="#8F94FB"/>
<path opacity="0.45" d="M154.823 75.9153C154.804 75.9362 154.785 75.9566 154.766 75.9779C154.785 75.9566 154.804 75.9361 154.823 75.9153Z" fill="#8F94FB"/>
<path opacity="0.45" d="M154.505 76.3097C154.514 76.2971 154.523 76.2854 154.532 76.273C154.523 76.2854 154.514 76.2971 154.505 76.3097Z" fill="#8F94FB"/>
<path opacity="0.45" d="M153.993 89.533C154.037 89.6802 154.09 89.8245 154.151 89.9653C154.09 89.8245 154.037 89.6802 153.993 89.533V89.533Z" fill="#8F94FB"/>
<path opacity="0.45" d="M154.396 90.4311C154.481 90.5667 154.574 90.6968 154.676 90.8205C154.574 90.6968 154.481 90.5667 154.396 90.4311Z" fill="#8F94FB"/>
<path opacity="0.45" d="M154.17 90.0052C154.236 90.1505 154.311 90.2915 154.394 90.4273C154.311 90.2915 154.236 90.1505 154.17 90.0052V90.0052Z" fill="#8F94FB"/>
<path opacity="0.45" d="M153.934 77.5964C153.945 77.5501 153.957 77.5043 153.969 77.4588C153.957 77.5044 153.945 77.5501 153.934 77.5964Z" fill="#8F94FB"/>
<path opacity="0.45" d="M154.062 77.1701C154.075 77.1325 154.088 77.0944 154.103 77.0573C154.088 77.0945 154.076 77.1325 154.062 77.1701Z" fill="#8F94FB"/>
<path opacity="0.45" d="M153.858 78.0251C153.863 77.9808 153.871 77.9376 153.878 77.8937C153.871 77.9376 153.863 77.9808 153.858 78.0251Z" fill="#8F94FB"/>
<path opacity="0.45" d="M154.27 76.6961C154.272 76.6913 154.274 76.6861 154.277 76.6812C154.274 76.6861 154.272 76.6913 154.27 76.6961Z" fill="#8F94FB"/>
<path opacity="0.1" d="M82.4468 57.9918L120.456 57.9918C122.121 57.9918 123.472 56.6404 123.472 54.9733V43.4662C123.472 41.7991 122.121 40.4476 120.456 40.4476H82.4468C80.7809 40.4476 79.4305 41.7991 79.4305 43.4662V54.9733C79.4305 56.6404 80.7809 57.9918 82.4468 57.9918Z" fill="black"/>
<path opacity="0.1" d="M214.144 57.9918L252.152 57.9918C253.818 57.9918 255.169 56.6404 255.169 54.9733V43.4662C255.169 41.7991 253.818 40.4476 252.152 40.4476H214.144C212.478 40.4476 211.127 41.7991 211.127 43.4662V54.9733C211.127 56.6404 212.478 57.9918 214.144 57.9918Z" fill="black"/>
<path opacity="0.1" d="M272.723 75.1081H310.732C312.398 75.1081 313.748 73.7566 313.748 72.0895V60.5825C313.748 58.9154 312.398 57.5639 310.732 57.5639H272.723C271.057 57.5639 269.707 58.9154 269.707 60.5825V72.0895C269.707 73.7566 271.057 75.1081 272.723 75.1081Z" fill="black"/>
<path opacity="0.1" d="M200.888 92.2243H238.897C240.563 92.2243 241.914 90.8729 241.914 89.2058V77.6987C241.914 76.0316 240.563 74.6802 238.897 74.6802H200.888C199.223 74.6802 197.872 76.0316 197.872 77.6987V89.2058C197.872 90.8729 199.223 92.2243 200.888 92.2243Z" fill="black"/>
<path opacity="0.1" d="M272.723 109.769H310.732C312.398 109.769 313.748 108.417 313.748 106.75V95.2429C313.748 93.5758 312.398 92.2243 310.732 92.2243H272.723C271.057 92.2243 269.707 93.5758 269.707 95.2429V106.75C269.707 108.417 271.057 109.769 272.723 109.769Z" fill="black"/>
<path opacity="0.1" d="M272.723 144.001H310.732C312.398 144.001 313.748 142.65 313.748 140.983V129.475C313.748 127.808 312.398 126.457 310.732 126.457H272.723C271.057 126.457 269.707 127.808 269.707 129.475V140.983C269.707 142.65 271.057 144.001 272.723 144.001Z" fill="black"/>
<path opacity="0.1" d="M290.9 143.573H252.362C251.767 143.573 251.188 143.767 250.712 144.124C250.236 144.481 249.888 144.983 249.722 145.555C249.732 145.71 249.721 145.867 249.691 146.019C249.671 146.109 249.645 146.197 249.612 146.283C249.612 146.298 249.61 146.312 249.61 146.327V158.364C249.61 159.094 249.9 159.794 250.416 160.311C250.932 160.827 251.632 161.117 252.362 161.117H290.9C291.63 161.117 292.33 160.827 292.846 160.311C293.362 159.794 293.652 159.094 293.652 158.364V146.327C293.652 145.965 293.58 145.607 293.442 145.273C293.304 144.939 293.101 144.635 292.846 144.38C292.59 144.124 292.287 143.921 291.953 143.783C291.619 143.644 291.261 143.573 290.9 143.573V143.573Z" fill="black"/>
<path opacity="0.1" d="M223.123 178.234H261.132C262.798 178.234 264.148 176.882 264.148 175.215V163.708C264.148 162.041 262.798 160.689 261.132 160.689H223.123C221.457 160.689 220.107 162.041 220.107 163.708V175.215C220.107 176.882 221.457 178.234 223.123 178.234Z" fill="black"/>
<path opacity="0.1" d="M96.5572 75.1081H134.566C136.232 75.1081 137.582 73.7566 137.582 72.0895V60.5825C137.582 58.9154 136.232 57.5639 134.566 57.5639H96.5572C94.8913 57.5639 93.5409 58.9154 93.5409 60.5825V72.0895C93.5409 73.7566 94.8913 75.1081 96.5572 75.1081Z" fill="black"/>
<path opacity="0.1" d="M69.1916 92.2243H107.2C108.866 92.2243 110.217 90.8729 110.217 89.2058V77.6987C110.217 76.0316 108.866 74.6802 107.2 74.6802H69.1916C67.5257 74.6802 66.1753 76.0316 66.1753 77.6987V89.2058C66.1753 90.8729 67.5257 92.2243 69.1916 92.2243Z" fill="black"/>
<path opacity="0.1" d="M52.5157 109.769H90.5245C92.1904 109.769 93.5408 108.417 93.5408 106.75V95.2429C93.5408 93.5758 92.1904 92.2243 90.5245 92.2243H52.5157C50.8498 92.2243 49.4994 93.5758 49.4994 95.2429V106.75C49.4994 108.417 50.8498 109.769 52.5157 109.769Z" fill="black"/>
<path opacity="0.1" d="M70.4743 126.885H108.483C110.149 126.885 111.5 125.533 111.5 123.866V112.359C111.5 110.692 110.149 109.341 108.483 109.341H70.4743C68.8085 109.341 67.4581 110.692 67.4581 112.359V123.866C67.4581 125.533 68.8085 126.885 70.4743 126.885Z" fill="black"/>
<path opacity="0.1" d="M52.5157 144.001H90.5245C92.1904 144.001 93.5408 142.65 93.5408 140.983V129.475C93.5408 127.808 92.1904 126.457 90.5245 126.457H52.5157C50.8498 126.457 49.4994 127.808 49.4994 129.475V140.983C49.4994 142.65 50.8498 144.001 52.5157 144.001Z" fill="black"/>
<path opacity="0.45" d="M32.5914 161.136H70.6003C72.2661 161.136 73.6166 159.785 73.6166 158.118V146.611C73.6166 144.944 72.2661 143.592 70.6003 143.592H32.5914C30.9256 143.592 29.5751 144.944 29.5751 146.611V158.118C29.5751 159.785 30.9256 161.136 32.5914 161.136Z" fill="#8F94FB"/>
<path opacity="0.45" d="M289.739 126.866H327.748C329.414 126.866 330.764 125.514 330.764 123.847V112.34C330.764 110.673 329.414 109.322 327.748 109.322H289.739C288.073 109.322 286.723 110.673 286.723 112.34V123.847C286.723 125.514 288.073 126.866 289.739 126.866Z" fill="#8F94FB"/>
<path opacity="0.45" d="M287.871 92.2838H325.88C327.546 92.2838 328.896 90.9323 328.896 89.2652V77.7582C328.896 76.0911 327.546 74.7396 325.88 74.7396H287.871C286.205 74.7396 284.855 76.0911 284.855 77.7582V89.2652C284.855 90.9323 286.205 92.2838 287.871 92.2838Z" fill="#8F94FB"/>
<path opacity="0.45" d="M309.975 177.96H347.984C349.65 177.96 351 176.609 351 174.941V163.434C351 161.767 349.65 160.416 347.984 160.416H309.975C308.309 160.416 306.959 161.767 306.959 163.434V174.941C306.959 176.609 308.309 177.96 309.975 177.96Z" fill="#8F94FB"/>
<path opacity="0.45" d="M3.01628 178.271H41.0251C42.691 178.271 44.0414 176.92 44.0414 175.253V163.746C44.0414 162.079 42.691 160.727 41.0251 160.727H3.01628C1.35043 160.727 -7.62939e-06 162.079 -7.62939e-06 163.746V175.253C-7.62939e-06 176.92 1.35043 178.271 3.01628 178.271Z" fill="#8F94FB"/>
<path opacity="0.45" d="M8.93131 143.689H46.9402C48.606 143.689 49.9565 142.338 49.9565 140.671V129.164C49.9565 127.497 48.606 126.145 46.9402 126.145H8.93131C7.26546 126.145 5.91502 127.497 5.91502 129.164V140.671C5.91502 142.338 7.26546 143.689 8.93131 143.689Z" fill="#8F94FB"/>
<path opacity="0.45" d="M8.93131 109.731H46.9402C48.606 109.731 49.9565 108.379 49.9565 106.712V95.205C49.9565 93.5379 48.606 92.1864 46.9402 92.1864H8.93131C7.26546 92.1864 5.91502 93.5379 5.91502 95.205V106.712C5.91502 108.379 7.26546 109.731 8.93131 109.731Z" fill="#8F94FB"/>
<path opacity="0.45" d="M10.4879 75.1486H48.4968C50.1626 75.1486 51.513 73.7971 51.513 72.13V60.6229C51.513 58.9558 50.1626 57.6044 48.4968 57.6044H10.4879C8.82204 57.6044 7.4716 58.9558 7.4716 60.6229V72.13C7.4716 73.7971 8.82204 75.1486 10.4879 75.1486Z" fill="#8F94FB"/>
<path opacity="0.1" d="M10.4879 75.1486H48.4968C50.1626 75.1486 51.513 73.7971 51.513 72.13V60.6229C51.513 58.9558 50.1626 57.6044 48.4968 57.6044H10.4879C8.82204 57.6044 7.4716 58.9558 7.4716 60.6229V72.13C7.4716 73.7971 8.82204 75.1486 10.4879 75.1486Z" fill="black"/>
<path opacity="0.45" d="M38.5064 58.0133L76.5153 58.0133C78.1811 58.0133 79.5316 56.6619 79.5316 54.9948V43.4877C79.5316 41.8206 78.1811 40.4691 76.5153 40.4691H38.5064C36.8406 40.4691 35.4901 41.8206 35.4901 43.4877V54.9948C35.4901 56.6619 36.8406 58.0133 38.5064 58.0133Z" fill="#8F94FB"/>
<path opacity="0.1" d="M76.8881 161.117H114.897C116.563 161.117 117.913 159.766 117.913 158.099V146.592C117.913 144.925 116.563 143.573 114.897 143.573H76.8881C75.2223 143.573 73.8718 144.925 73.8718 146.592V158.099C73.8718 159.766 75.2223 161.117 76.8881 161.117Z" fill="black"/>
<path opacity="0.1" d="M46.957 178.234H84.9659C86.6318 178.234 87.9822 176.882 87.9822 175.215V163.708C87.9822 162.041 86.6318 160.689 84.9659 160.689H46.957C45.2912 160.689 43.9408 162.041 43.9408 163.708V175.215C43.9408 176.882 45.2912 178.234 46.957 178.234Z" fill="black"/>
</g>
<path opacity="0.5" d="M276.538 19.7537C281.988 19.7537 286.407 15.3317 286.407 9.87683C286.407 4.42201 281.988 0 276.538 0C271.087 0 266.668 4.42201 266.668 9.87683C266.668 15.3317 271.087 19.7537 276.538 19.7537Z" fill="#FCCC63"/>
<path opacity="0.5" d="M85.9776 27.7838H83.6294C83.8457 27.7845 84.0599 27.7424 84.2599 27.66C84.4599 27.5776 84.6416 27.4565 84.7948 27.3037C84.9479 27.1509 85.0694 26.9694 85.1523 26.7695C85.2352 26.5696 85.2778 26.3553 85.2778 26.1389C85.2778 25.9225 85.2352 25.7082 85.1523 25.5083C85.0694 25.3085 84.9479 25.1269 84.7948 24.9741C84.6416 24.8213 84.4599 24.7002 84.2599 24.6178C84.0599 24.5355 83.8457 24.4934 83.6294 24.494H64.6095C64.3932 24.4934 64.179 24.5355 63.979 24.6178C63.779 24.7002 63.5973 24.8213 63.4441 24.9741C63.291 25.1269 63.1695 25.3085 63.0866 25.5083C63.0037 25.7082 62.961 25.9225 62.961 26.1389C62.961 26.3553 63.0037 26.5696 63.0866 26.7695C63.1695 26.9694 63.291 27.1509 63.4441 27.3037C63.5973 27.4565 63.779 27.5776 63.979 27.66C64.179 27.7424 64.3932 27.7845 64.6095 27.7838H66.9576C66.7415 27.7834 66.5274 27.8256 66.3276 27.9081C66.1278 27.9906 65.9462 28.1117 65.7932 28.2644C65.6402 28.4172 65.5188 28.5987 65.436 28.7985C65.3532 28.9983 65.3106 29.2125 65.3106 29.4288C65.3106 29.6451 65.3532 29.8592 65.436 30.059C65.5188 30.2588 65.6402 30.4403 65.7932 30.5931C65.9462 30.7459 66.1278 30.867 66.3276 30.9494C66.5274 31.0319 66.7415 31.0741 66.9576 31.0737H63.6702C63.2351 31.0749 62.8183 31.2488 62.511 31.5571C62.2038 31.8655 62.0313 32.2832 62.0313 32.7186C62.0313 33.154 62.2038 33.5717 62.511 33.8801C62.8183 34.1884 63.2351 34.3623 63.6702 34.3635H82.6902C83.1253 34.3623 83.5422 34.1884 83.8494 33.8801C84.1566 33.5717 84.3291 33.154 84.3291 32.7186C84.3291 32.2832 84.1566 31.8655 83.8494 31.5571C83.5422 31.2488 83.1253 31.0749 82.6902 31.0737H85.9776C86.4129 31.0728 86.8301 30.8991 87.1377 30.5907C87.4452 30.2823 87.6179 29.8644 87.6179 29.4288C87.6179 28.9931 87.4452 28.5752 87.1377 28.2668C86.8301 27.9584 86.4129 27.7847 85.9776 27.7838V27.7838Z" fill="#DEE3F3"/>
<path opacity="0.5" d="M275.287 8.68991H273.5C273.831 8.68991 274.15 8.55802 274.384 8.32324C274.619 8.08846 274.751 7.77004 274.751 7.43802C274.751 7.106 274.619 6.78757 274.384 6.5528C274.15 6.31802 273.831 6.18613 273.5 6.18613H259.024C258.692 6.18613 258.374 6.31802 258.14 6.5528C257.905 6.78757 257.773 7.106 257.773 7.43802C257.773 7.77004 257.905 8.08846 258.14 8.32324C258.374 8.55802 258.692 8.68991 259.024 8.68991H260.811C260.48 8.68991 260.161 8.82181 259.927 9.05658C259.692 9.29136 259.56 9.60978 259.56 9.9418C259.56 10.2738 259.692 10.5922 259.927 10.827C260.161 11.0618 260.48 11.1937 260.811 11.1937H258.309C258.145 11.1937 257.982 11.2261 257.831 11.289C257.679 11.3519 257.541 11.4441 257.425 11.5604C257.309 11.6766 257.217 11.8146 257.154 11.9665C257.091 12.1184 257.058 12.2812 257.058 12.4456C257.058 12.61 257.091 12.7728 257.154 12.9247C257.217 13.0766 257.309 13.2146 257.425 13.3308C257.541 13.4471 257.679 13.5393 257.831 13.6022C257.982 13.6651 258.145 13.6975 258.309 13.6975H272.785C272.949 13.6975 273.112 13.6651 273.263 13.6022C273.415 13.5393 273.553 13.4471 273.669 13.3308C273.785 13.2146 273.878 13.0766 273.94 12.9247C274.003 12.7728 274.036 12.61 274.036 12.4456C274.036 12.2812 274.003 12.1184 273.94 11.9665C273.878 11.8146 273.785 11.6766 273.669 11.5604C273.553 11.4441 273.415 11.3519 273.263 11.289C273.112 11.2261 272.949 11.1937 272.785 11.1937H275.287C275.618 11.1937 275.937 11.0618 276.171 10.827C276.406 10.5922 276.538 10.2738 276.538 9.9418C276.538 9.60978 276.406 9.29136 276.171 9.05658C275.937 8.82181 275.618 8.68991 275.287 8.68991H275.287Z" fill="#F2F2F2"/>
<path opacity="0.5" d="M131.024 4.56058H128.676C128.892 4.5612 129.107 4.51911 129.307 4.43672C129.507 4.35434 129.688 4.23327 129.841 4.08047C129.995 3.92766 130.116 3.74612 130.199 3.54623C130.282 3.34635 130.325 3.13206 130.325 2.91565C130.325 2.69924 130.282 2.48495 130.199 2.28507C130.116 2.08519 129.995 1.90364 129.841 1.75083C129.688 1.59803 129.507 1.47696 129.307 1.39458C129.107 1.31219 128.892 1.2701 128.676 1.27073H109.656C109.44 1.2701 109.226 1.31219 109.026 1.39458C108.826 1.47696 108.644 1.59803 108.491 1.75083C108.338 1.90364 108.216 2.08519 108.133 2.28507C108.05 2.48495 108.008 2.69924 108.008 2.91565C108.008 3.13206 108.05 3.34635 108.133 3.54623C108.216 3.74612 108.338 3.92766 108.491 4.08047C108.644 4.23327 108.826 4.35434 109.026 4.43672C109.226 4.51911 109.44 4.5612 109.656 4.56058H112.004C111.788 4.56013 111.574 4.60235 111.374 4.68482C111.174 4.76729 110.993 4.88839 110.84 5.04117C110.687 5.19396 110.566 5.37545 110.483 5.57524C110.4 5.77503 110.357 5.9892 110.357 6.2055C110.357 6.42179 110.4 6.63597 110.483 6.83576C110.566 7.03555 110.687 7.21703 110.84 7.36982C110.993 7.52261 111.174 7.64371 111.374 7.72617C111.574 7.80864 111.788 7.85086 112.004 7.85042H108.717C108.282 7.85167 107.865 8.02553 107.558 8.33388C107.251 8.64223 107.078 9.0599 107.078 9.49534C107.078 9.93079 107.251 10.3485 107.558 10.6568C107.865 10.9652 108.282 11.139 108.717 11.1403H127.737C128.172 11.139 128.589 10.9652 128.896 10.6568C129.203 10.3485 129.376 9.93079 129.376 9.49534C129.376 9.0599 129.203 8.64223 128.896 8.33388C128.589 8.02553 128.172 7.85167 127.737 7.85042H131.024C131.46 7.84953 131.877 7.67584 132.184 7.36745C132.492 7.05906 132.665 6.64118 132.665 6.2055C132.665 5.76982 132.492 5.35193 132.184 5.04355C131.877 4.73516 131.46 4.56146 131.024 4.56058V4.56058Z" fill="#DEE3F3"/>
<path d="M203.715 90.4141H133.391C130.947 90.4141 128.965 92.3972 128.965 94.8435V122.732C128.965 125.178 130.947 127.161 133.391 127.161H203.715C206.16 127.161 208.141 125.178 208.141 122.732V94.8435C208.141 92.3972 206.16 90.4141 203.715 90.4141Z" fill="#8F94FB"/>
<path opacity="0.1" d="M201.83 121.521H135.276V122.21H201.83V121.521Z" fill="black"/>
<path opacity="0.3" d="M201.83 96.1558H135.276V121.419H201.83V96.1558Z" fill="black"/>
<path opacity="0.1" d="M150.767 118.502C155.837 118.502 159.947 114.388 159.947 109.315C159.947 104.241 155.837 100.128 150.767 100.128C145.697 100.128 141.587 104.241 141.587 109.315C141.587 114.388 145.697 118.502 150.767 118.502Z" fill="black"/>
<path opacity="0.1" d="M186.339 118.502C191.409 118.502 195.519 114.388 195.519 109.315C195.519 104.241 191.409 100.128 186.339 100.128C181.269 100.128 177.159 104.241 177.159 109.315C177.159 114.388 181.269 118.502 186.339 118.502Z" fill="black"/>
<path d="M175.437 127.16H161.668V135.2H175.437V127.16Z" fill="#8F94FB"/>
<path d="M197.24 132.903H139.866V178.836H197.24V132.903Z" fill="#8F94FB"/>
<path d="M198.388 188.023H138.719V193.765H198.388V188.023Z" fill="#8F94FB"/>
<path d="M148.472 207.545V214.435V224.77V230.512V233.956H158.8V230.512V224.77V214.435V207.545V199.507H148.472V207.545Z" fill="#8F94FB"/>
<path d="M179.454 199.507V207.545V214.435V224.77V230.512V233.956H189.782V230.512V224.77V214.435V207.545V199.507H179.454Z" fill="#8F94FB"/>
<path d="M132.051 143.238V153.859C129.217 154.355 126.576 155.629 124.423 157.539C122.426 159.39 120.874 161.668 119.881 164.204C118.554 167.422 117.908 170.997 117.645 174.377C117.32 178.935 117.533 183.516 118.28 188.024H106.805C106.318 181.676 106.473 176.23 107.105 171.553C107.814 166.281 109.126 161.989 110.788 158.499C114.112 151.521 118.841 147.735 122.995 145.679C127.929 143.238 132.051 143.238 132.051 143.238Z" fill="#8F94FB"/>
<path opacity="0.3" d="M158.8 199.506H148.472V207.545H158.8V199.506Z" fill="black"/>
<path opacity="0.3" d="M158.8 214.435H148.472V224.77H158.8V214.435Z" fill="black"/>
<path opacity="0.3" d="M158.8 230.512H148.472V233.957H158.8V230.512Z" fill="black"/>
<path opacity="0.3" d="M189.782 199.506H179.454V207.545H189.782V199.506Z" fill="black"/>
<path opacity="0.3" d="M189.782 214.435H179.454V224.77H189.782V214.435Z" fill="black"/>
<path opacity="0.3" d="M189.782 230.512H179.454V233.957H189.782V230.512Z" fill="black"/>
<path opacity="0.3" d="M132.051 143.238V153.859C129.217 154.355 126.576 155.629 124.423 157.539L122.995 145.679C127.929 143.238 132.051 143.238 132.051 143.238Z" fill="black"/>
<path opacity="0.3" d="M119.881 164.204C118.554 167.422 117.908 170.997 117.645 174.377L107.105 171.553C107.814 166.281 109.126 161.989 110.788 158.499L119.881 164.204Z" fill="black"/>
<path d="M205.055 143.238V153.859C207.89 154.355 210.531 155.629 212.684 157.539C214.68 159.39 216.233 161.668 217.225 164.204C218.553 167.422 219.198 170.997 219.462 174.377C219.786 178.935 219.573 183.516 218.827 188.024H230.301C230.789 181.676 230.633 176.23 230.001 171.553C229.293 166.281 227.981 161.989 226.319 158.499C222.994 151.521 218.266 147.735 214.112 145.679C209.178 143.238 205.055 143.238 205.055 143.238Z" fill="#8F94FB"/>
<path opacity="0.3" d="M205.055 143.238V153.859C207.89 154.355 210.531 155.629 212.684 157.539L214.112 145.679C209.178 143.238 205.055 143.238 205.055 143.238Z" fill="black"/>
<path opacity="0.3" d="M217.225 164.204C218.553 167.422 219.198 170.997 219.462 174.377L230.001 171.553C229.293 166.281 227.981 161.989 226.319 158.499L217.225 164.204Z" fill="black"/>
<path opacity="0.1" d="M175.437 127.16H161.668V128.112H175.437V127.16Z" fill="black"/>
<path opacity="0.1" d="M198.26 141.087V160.318C197.573 159.577 197.192 158.603 197.193 157.592V143.81C197.192 142.8 197.573 141.827 198.26 141.087V141.087Z" fill="black"/>
<path opacity="0.1" d="M140.07 142.355V156.751C140.001 157.661 139.624 158.521 139 159.187V139.919C139.624 140.585 140.001 141.445 140.07 142.355V142.355Z" fill="black"/>
<path opacity="0.1" d="M194.372 178.837H142.736V179.517H194.372V178.837Z" fill="black"/>
<path opacity="0.1" d="M166.831 193.766H141.587V194.293H166.831V193.766Z" fill="black"/>
<path opacity="0.1" d="M194.372 193.766H169.128V194.293H194.372V193.766Z" fill="black"/>
<path d="M148.355 56.4073H144.403V90.4141H148.355V56.4073Z" fill="#8F94FB"/>
<path d="M193.663 56.4073H189.712V90.4141H193.663V56.4073Z" fill="#8F94FB"/>
<path opacity="0.1" d="M146.247 61.1524C148.72 61.1524 150.725 59.1459 150.725 56.6709C150.725 54.1958 148.72 52.1893 146.247 52.1893C143.774 52.1893 141.769 54.1958 141.769 56.6709C141.769 59.1459 143.774 61.1524 146.247 61.1524Z" fill="black"/>
<path d="M146.247 60.8888C148.72 60.8888 150.725 58.8823 150.725 56.4072C150.725 53.9322 148.72 51.9257 146.247 51.9257C143.774 51.9257 141.769 53.9322 141.769 56.4072C141.769 58.8823 143.774 60.8888 146.247 60.8888Z" fill="#8F94FB"/>
<path opacity="0.1" d="M191.819 61.1524C194.292 61.1524 196.297 59.1459 196.297 56.6709C196.297 54.1958 194.292 52.1893 191.819 52.1893C189.346 52.1893 187.341 54.1958 187.341 56.6709C187.341 59.1459 189.346 61.1524 191.819 61.1524Z" fill="black"/>
<path d="M191.819 60.8888C194.292 60.8888 196.297 58.8823 196.297 56.4072C196.297 53.9322 194.292 51.9257 191.819 51.9257C189.346 51.9257 187.341 53.9322 187.341 56.4072C187.341 58.8823 189.346 60.8888 191.819 60.8888Z" fill="#8F94FB"/>
<path d="M51.709 160.586C51.709 160.586 64.8135 186.329 54.1358 200.415C43.458 214.501 55.1065 252.872 55.1065 252.872" stroke="#FC6681" stroke-width="2" stroke-miterlimit="10"/>
<path d="M55.5918 152.572C55.5918 157.535 51.9517 161.558 51.9517 161.558C51.9517 161.558 48.3115 157.535 48.3115 152.572C48.3115 147.609 51.9517 143.586 51.9517 143.586C51.9517 143.586 55.5918 147.609 55.5918 152.572Z" fill="#FC6681"/>
<path d="M58.5039 160.586C58.5039 160.586 45.3994 186.329 56.0772 200.415C66.7549 214.501 55.1064 252.872 55.1064 252.872" stroke="#FFD037" stroke-width="2" stroke-miterlimit="10"/>
<path d="M54.6211 152.572C54.6211 157.535 58.2612 161.558 58.2612 161.558C58.2612 161.558 61.9014 157.535 61.9014 152.572C61.9014 147.609 58.2612 143.586 58.2612 143.586C58.2612 143.586 54.6211 147.609 54.6211 152.572Z" fill="#FFD037"/>
<path d="M63.8428 160.586C63.8428 160.586 76.9473 186.329 66.2695 200.415C55.5918 214.501 67.2403 252.872 67.2403 252.872" stroke="#FC6681" stroke-width="2" stroke-miterlimit="10"/>
<path d="M67.7256 152.572C67.7256 157.535 64.0855 161.558 64.0855 161.558C64.0855 161.558 60.4453 157.535 60.4453 152.572C60.4453 147.609 64.0855 143.586 64.0855 143.586C64.0855 143.586 67.7256 147.609 67.7256 152.572Z" fill="#FC6681"/>
<path d="M65.6849 173.198C62.2469 176.774 56.8365 177.148 56.8365 177.148C56.8365 177.148 57.0004 171.723 60.4384 168.147C63.8765 164.57 69.2869 164.197 69.2869 164.197C69.2869 164.197 69.123 169.622 65.6849 173.198Z" fill="#FC6681"/>
<path d="M66.0262 190.957C62.5881 194.533 57.1778 194.907 57.1778 194.907C57.1778 194.907 57.3416 189.482 60.7797 185.906C64.2178 182.329 69.6281 181.956 69.6281 181.956C69.6281 181.956 69.4643 187.381 66.0262 190.957Z" fill="#FC6681"/>
<path d="M47.3822 200.728C50.6333 204.476 50.52 209.902 50.52 209.902C50.52 209.902 45.1358 209.252 41.8847 205.505C38.6337 201.757 38.7469 196.331 38.7469 196.331C38.7469 196.331 44.1311 196.981 47.3822 200.728Z" fill="#FC6681"/>
<path d="M50.3983 162.855C54.5319 165.596 55.8719 170.855 55.8719 170.855C55.8719 170.855 50.51 171.669 46.3764 168.928C42.2428 166.186 40.9028 160.927 40.9028 160.927C40.9028 160.927 46.2647 160.113 50.3983 162.855Z" fill="#FC6681"/>
<path d="M70.6377 160.586C70.6377 160.586 57.5332 186.329 68.211 200.415C78.8887 214.501 67.2403 252.872 67.2403 252.872" stroke="#FFD037" stroke-width="2" stroke-miterlimit="10"/>
<path d="M66.7549 152.572C66.7549 157.535 70.3951 161.558 70.3951 161.558C70.3951 161.558 74.0352 157.535 74.0352 152.572C74.0352 147.609 70.3951 143.586 70.3951 143.586C70.3951 143.586 66.7549 147.609 66.7549 152.572Z" fill="#FFD037"/>
<path d="M67.8022 173.58C64.3216 177.115 64.0927 182.537 64.0927 182.537C64.0927 182.537 69.5072 182.228 72.9879 178.694C76.4685 175.159 76.6973 169.736 76.6973 169.736C76.6973 169.736 71.2829 170.045 67.8022 173.58Z" fill="#FFD037"/>
<path d="M74.6275 198.169C71.1468 201.704 70.918 207.126 70.918 207.126C70.918 207.126 76.3325 206.818 79.8131 203.283C83.2938 199.748 83.5226 194.326 83.5226 194.326C83.5226 194.326 78.1082 194.634 74.6275 198.169Z" fill="#FFD037"/>
<path d="M64.586 192.765C64.586 192.765 72.4744 180.322 83.5458 180.054" stroke="#FFD037" stroke-width="2" stroke-miterlimit="10"/>
<path d="M58.4432 185.251C58.4432 185.251 50.5548 172.808 39.4834 172.541" stroke="#FC6681" stroke-width="2" stroke-miterlimit="10"/>
<path d="M57.4195 203.01C57.4195 203.01 65.3079 190.567 76.3793 190.3" stroke="#FFD037" stroke-width="2" stroke-miterlimit="10"/>
<path d="M83.1848 182.007C84.3157 182.007 85.2324 181.09 85.2324 179.958C85.2324 178.826 84.3157 177.909 83.1848 177.909C82.054 177.909 81.1373 178.826 81.1373 179.958C81.1373 181.09 82.054 182.007 83.1848 182.007Z" fill="#FFD037"/>
<path d="M39.6738 174.664C40.8046 174.664 41.7214 173.747 41.7214 172.615C41.7214 171.484 40.8046 170.566 39.6738 170.566C38.5429 170.566 37.6262 171.484 37.6262 172.615C37.6262 173.747 38.5429 174.664 39.6738 174.664Z" fill="#FC6681"/>
<path d="M63.2209 207.109C63.2209 207.109 55.3325 194.665 44.2611 194.398" stroke="#FC6681" stroke-width="2" stroke-miterlimit="10"/>
<path d="M44.4515 196.521C45.5823 196.521 46.499 195.604 46.499 194.472C46.499 193.341 45.5823 192.423 44.4515 192.423C43.3206 192.423 42.4039 193.341 42.4039 194.472C42.4039 195.604 43.3206 196.521 44.4515 196.521Z" fill="#FC6681"/>
<path d="M76.5302 192.423C77.661 192.423 78.5778 191.506 78.5778 190.374C78.5778 189.242 77.661 188.325 76.5302 188.325C75.3993 188.325 74.4826 189.242 74.4826 190.374C74.4826 191.506 75.3993 192.423 76.5302 192.423Z" fill="#FFD037"/>
<path d="M106.824 237.925C106.824 237.925 87.8148 234.12 82.7456 229.047C77.6764 223.974 54.8651 215.097 52.3305 221.438C49.796 227.779 18.1136 249.339 39.6576 253.144C61.2016 256.949 90.3494 258.217 96.6859 255.68C103.022 253.144 106.824 237.925 106.824 237.925Z" fill="#A8A8A8"/>
<path opacity="0.2" d="M39.6576 250.788C61.2016 254.593 90.3494 255.861 96.6859 253.324C101.511 251.393 104.865 242.112 106.191 237.793C106.592 237.878 106.824 237.925 106.824 237.925C106.824 237.925 103.022 253.144 96.6859 255.68C90.3494 258.217 61.2016 256.949 39.6576 253.144C33.4386 252.046 31.6602 249.466 32.3301 246.202C32.8619 248.332 35.0287 249.971 39.6576 250.788Z" fill="black"/>
<path d="M312.136 165.131C312.136 165.131 316.691 171.092 310.034 180.091C303.377 189.091 297.888 196.688 300.107 202.298C300.107 202.298 310.151 185.585 318.326 185.351C326.501 185.117 321.129 175.183 312.136 165.131Z" fill="#FC6681"/>
<path opacity="0.1" d="M312.136 165.131C312.533 165.707 312.847 166.336 313.067 167.001C321.043 176.379 325.293 185.132 317.625 185.351C310.483 185.555 301.916 198.336 299.864 201.563C299.931 201.813 300.012 202.058 300.107 202.298C300.107 202.298 310.151 185.585 318.326 185.351C326.501 185.117 321.129 175.183 312.136 165.131Z" fill="black"/>
<path d="M320.603 172.728C320.603 174.826 320.368 176.527 320.078 176.527C319.788 176.527 319.552 174.826 319.552 172.728C319.552 170.63 319.846 171.618 320.136 171.618C320.427 171.618 320.603 170.63 320.603 172.728Z" fill="#FFD037"/>
<path d="M323.509 175.233C321.668 176.237 320.064 176.844 319.925 176.589C319.786 176.334 321.165 175.313 323.006 174.309C324.847 173.305 324.121 174.036 324.26 174.291C324.399 174.546 325.35 174.229 323.509 175.233Z" fill="#FFD037"/>
<path d="M288.078 165.131C288.078 165.131 283.523 171.092 290.18 180.091C296.837 189.091 302.326 196.688 300.107 202.298C300.107 202.298 290.063 185.585 281.888 185.351C273.713 185.117 279.085 175.183 288.078 165.131Z" fill="#FC6681"/>
<path opacity="0.1" d="M288.078 165.131C287.68 165.707 287.367 166.336 287.147 167.001C279.171 176.379 274.921 185.132 282.589 185.351C289.731 185.555 298.298 198.336 300.35 201.563C300.283 201.813 300.202 202.058 300.107 202.298C300.107 202.298 290.063 185.585 281.888 185.351C273.713 185.117 279.085 175.183 288.078 165.131Z" fill="black"/>
<path d="M279.61 172.728C279.61 174.826 279.846 176.527 280.136 176.527C280.426 176.527 280.661 174.826 280.661 172.728C280.661 170.63 280.368 171.618 280.078 171.618C279.787 171.618 279.61 170.63 279.61 172.728Z" fill="#FFD037"/>
<path d="M276.705 175.233C278.545 176.237 280.15 176.844 280.289 176.589C280.428 176.334 279.049 175.313 277.208 174.309C275.367 173.305 276.093 174.036 275.954 174.291C275.815 174.546 274.864 174.229 276.705 175.233Z" fill="#FFD037"/>
<path d="M281.061 201.518C281.061 201.518 293.796 201.125 297.633 198.391C301.471 195.656 317.222 192.39 318.175 196.776C319.127 201.162 337.312 218.591 322.935 218.708C308.558 218.824 289.528 216.466 285.698 214.131C281.867 211.796 281.061 201.518 281.061 201.518Z" fill="#A8A8A8"/>
<path opacity="0.2" d="M323.192 217.181C308.814 217.297 289.785 214.939 285.955 212.604C283.037 210.826 281.875 204.445 281.486 201.501C281.217 201.513 281.061 201.518 281.061 201.518C281.061 201.518 281.868 211.796 285.698 214.131C289.529 216.466 308.558 218.824 322.935 218.707C327.085 218.674 328.519 217.196 328.44 215.008C327.863 216.33 326.281 217.156 323.192 217.181Z" fill="black"/>
</svg>
