<svg width="61" height="60" viewBox="0 0 61 60" fill="none" xmlns="http://www.w3.org/2000/svg">
<g id="isolated-monochrome-black 4">
<g clip-path="url(#clip0)">
<g id="c6cf2749 3829 4d96 859c 9ea30598223d">
<path id="Vector" d="M42.1902 30.3983C41.97 37.0832 36.4865 42.2169 29.8016 41.9967C23.1167 41.7765 17.983 36.2931 18.2032 29.6082C18.4234 22.9233 23.9068 17.7895 30.5917 18.0097C37.2766 18.2299 42.4104 23.7134 42.1902 30.3983ZM21.1524 29.7053C20.9905 34.6207 24.9834 38.8856 29.8987 39.0475C34.8141 39.2094 39.079 35.2165 39.2409 30.3011C39.4028 25.3858 35.4099 21.1209 30.4946 20.959C25.5792 20.797 21.3143 24.79 21.1524 29.7053Z" fill="url(#paint0_linear)"/>
<path id="Vector_2" d="M10.6865 30.7384L10.7836 27.7892L19.6313 28.0806L19.5341 31.0298L10.6865 30.7384Z" fill="url(#paint1_linear)"/>
<path id="Vector_3" d="M12.6979 29.4268C12.5814 32.9659 9.73808 35.6278 6.19902 35.5113C2.65995 35.3947 -0.00198225 32.5514 0.114592 29.0123C0.231167 25.4733 3.07444 22.8113 6.61351 22.9279C10.1526 23.0445 12.8145 25.8878 12.6979 29.4268ZM3.06381 29.1095C3.00553 30.879 4.52663 32.5038 6.29616 32.562C8.0657 32.6203 9.69042 31.0992 9.74871 29.3297C9.807 27.5602 8.28589 25.9354 6.51636 25.8771C4.74683 25.8189 3.1221 27.34 3.06381 29.1095ZM40.5719 31.7228L40.669 28.7736L49.5167 29.065L49.4195 32.0142L40.5719 31.7228Z" fill="url(#paint2_linear)"/>
<path id="Vector_4" d="M60.0821 30.9876C59.9655 34.5267 57.1222 37.1886 53.5832 37.0721C50.0441 36.9555 47.3822 34.1122 47.4988 30.5731C47.6153 27.0341 50.4586 24.3721 53.9977 24.4887C57.5367 24.6053 60.1987 27.4486 60.0821 30.9876ZM50.6446 30.6768C50.5863 32.4463 52.1074 34.071 53.8769 34.1293C55.6465 34.1876 57.2712 32.6665 57.3295 30.897C57.3878 29.1274 55.8667 27.5027 54.0971 27.4444C52.131 27.3797 50.7029 28.9072 50.6446 30.6768ZM28.1792 49.4227L28.4706 40.5751L31.4199 40.6722L31.1284 49.5199L28.1792 49.4227Z" fill="url(#paint3_linear)"/>
<path id="Vector_5" d="M35.7047 54.0009C35.5881 57.5399 32.7449 60.2019 29.2058 60.0853C25.6667 59.9687 23.0048 57.1254 23.1214 53.5864C23.2379 50.0473 26.0812 47.3854 29.6203 47.5019C33.1593 47.6185 35.8213 50.4618 35.7047 54.0009ZM26.0706 53.6835C26.0123 55.453 27.5334 57.0778 29.3029 57.1361C31.0725 57.1943 32.6972 55.6732 32.7555 53.9037C32.8138 52.1342 31.2927 50.5094 29.5231 50.4512C27.7536 50.3929 26.1354 51.7174 26.0706 53.6835ZM29.1636 19.5373L29.4551 10.6897L32.4043 10.7868L32.1128 19.6345L29.1636 19.5373Z" fill="url(#paint4_linear)"/>
<path id="Vector_6" d="M37.272 6.42009C37.1554 9.95915 34.3121 12.6211 30.773 12.5045C27.234 12.3879 24.572 9.54467 24.6886 6.0056C24.8052 2.46654 27.6485 -0.195394 31.1875 -0.0788196C34.7266 0.037755 37.382 3.07764 37.272 6.42009ZM27.6378 6.10275C27.5795 7.87228 29.1006 9.49701 30.8702 9.5553C32.6397 9.61359 34.2644 8.09248 34.3227 6.32295C34.381 4.55341 32.8599 2.92869 31.0904 2.8704C29.3208 2.81211 27.6961 4.33322 27.6378 6.10275ZM15.1122 42.1801L21.5745 36.1299L23.59 38.2827L17.1315 44.335L15.1122 42.1801Z" fill="url(#paint5_linear)"/>
<path id="Vector_7" d="M19.2256 46.3722C19.1673 48.1418 18.5256 49.6952 17.3071 50.8361C15.8919 51.9704 14.2996 52.5085 12.7267 52.4566C11.1538 52.4048 9.40365 51.7567 8.26282 50.5382C5.98116 48.1011 6.11716 43.9722 8.55425 41.6905C9.7728 40.5497 11.3651 40.0116 13.1347 40.0699C14.9042 40.1282 16.4577 40.7699 17.5985 41.9884C18.5427 43.2005 19.2774 44.7993 19.2256 46.3722ZM9.59146 46.0549C9.55908 47.038 9.9264 47.8374 10.4968 48.4466C11.0672 49.0559 11.8407 49.475 12.8238 49.5074C13.8069 49.5398 14.4097 49.166 15.2156 48.6021C16.4341 47.4612 16.5054 45.2985 15.371 43.8833C14.604 43.2676 13.8305 42.8484 13.044 42.8225C12.2576 42.7966 11.2615 43.1575 10.6523 43.7279C10.0365 44.4949 9.61737 45.2684 9.59146 46.0549ZM36.8013 21.7237L43.2657 15.6716L45.2832 17.8244L38.8208 23.8746L36.8013 21.7237Z" fill="url(#paint6_linear)"/>
<path id="Vector_8" d="M53.751 14.0487C53.6928 15.8182 53.0511 17.3717 51.8326 18.5126C49.3955 20.7942 45.2666 20.6582 42.9849 18.2211C40.7032 15.784 40.8392 11.6551 43.2763 9.37347C45.7134 7.0918 49.8423 7.22781 52.124 9.6649C53.2713 10.6868 53.8093 12.2792 53.751 14.0487ZM44.1169 13.7314C44.0845 14.7144 44.4519 15.5139 45.0223 16.1231C46.3533 17.5448 48.3194 17.6095 49.741 16.2786C50.9596 15.1377 51.0373 12.7784 49.8965 11.5598C48.5655 10.1382 46.5994 10.0734 45.1777 11.4044C44.5684 11.9748 44.1493 12.7483 44.1169 13.7314ZM36.3233 38.6253L38.4761 36.6099L44.5284 43.0684L42.3756 45.0838L36.3233 38.6253Z" fill="url(#paint7_linear)"/>
<path id="Vector_9" d="M52.6501 47.4732C52.5918 49.2427 51.9501 50.7962 50.7316 51.9371C49.513 53.0779 47.9207 53.6159 46.1512 53.5576C44.3816 53.4994 42.8281 52.8577 41.6873 51.6392C39.4057 49.2021 39.5417 45.0732 41.9787 42.7915C43.1973 41.6507 44.7896 41.1126 46.5592 41.1709C48.3287 41.2292 49.8822 41.8709 51.023 43.0894C52.1638 44.308 52.7019 45.9003 52.6501 47.4732ZM43.016 47.1559C42.9836 48.1389 43.3509 48.9384 43.9213 49.5476C44.4917 50.1569 45.2652 50.576 46.2483 50.6084C47.2314 50.6408 48.0308 50.2735 48.6401 49.7031C49.8586 48.5622 49.9299 46.3995 48.7955 44.9843C48.2251 44.375 47.4516 43.9559 46.4685 43.9235C45.4854 43.8911 44.686 44.2585 44.0767 44.8289C43.461 45.5959 43.0419 46.3694 43.016 47.1559ZM15.865 16.9361L18.0197 14.9207L24.0699 21.3831L21.9171 23.3986L15.865 16.9361Z" fill="url(#paint8_linear)"/>
<path id="Vector_10" d="M20.3266 12.9477C20.2683 14.7173 19.6266 16.2708 18.4081 17.4116C15.971 19.6932 11.8421 19.5572 9.56042 17.1201C7.27876 14.6831 7.41477 10.5541 9.85186 8.27248C11.0704 7.13165 12.6628 6.59362 14.4323 6.65191C16.2018 6.7102 17.7553 7.35185 18.8961 8.5704C19.6502 9.57938 20.3849 11.1782 20.3266 12.9477ZM10.6925 12.6304C10.6601 13.6135 11.0274 14.4129 11.5978 15.0222C12.9288 16.4438 14.8949 16.5086 16.3166 15.1776C17.5351 14.0368 17.6128 11.6774 16.472 10.4588C15.141 9.03719 13.1749 8.97243 11.7532 10.3034C11.144 10.8738 10.7248 11.6473 10.6925 12.6304Z" fill="url(#paint9_linear)"/>
</g>
</g>
</g>
<defs>
<linearGradient id="paint0_linear" x1="18.2032" y1="29.6082" x2="42.1902" y2="30.3983" gradientUnits="userSpaceOnUse">
<stop stop-color="#4E54C8"/>
<stop offset="1" stop-color="#8F94FB"/>
</linearGradient>
<linearGradient id="paint1_linear" x1="10.735" y1="29.2638" x2="19.5827" y2="29.5552" gradientUnits="userSpaceOnUse">
<stop stop-color="#4E54C8"/>
<stop offset="1" stop-color="#8F94FB"/>
</linearGradient>
<linearGradient id="paint2_linear" x1="0.114592" y1="29.0123" x2="49.4649" y2="30.6379" gradientUnits="userSpaceOnUse">
<stop stop-color="#4E54C8"/>
<stop offset="1" stop-color="#8F94FB"/>
</linearGradient>
<linearGradient id="paint3_linear" x1="28.6034" y1="36.5445" x2="59.8651" y2="37.5742" gradientUnits="userSpaceOnUse">
<stop stop-color="#4E54C8"/>
<stop offset="1" stop-color="#8F94FB"/>
</linearGradient>
<linearGradient id="paint4_linear" x1="23.7269" y1="35.2029" x2="36.3102" y2="35.6174" gradientUnits="userSpaceOnUse">
<stop stop-color="#4E54C8"/>
<stop offset="1" stop-color="#8F94FB"/>
</linearGradient>
<linearGradient id="paint5_linear" x1="15.7818" y1="21.8521" x2="36.7409" y2="22.5425" gradientUnits="userSpaceOnUse">
<stop stop-color="#4E54C8"/>
<stop offset="1" stop-color="#8F94FB"/>
</linearGradient>
<linearGradient id="paint6_linear" x1="7.05673" y1="33.3744" x2="44.7301" y2="34.6153" gradientUnits="userSpaceOnUse">
<stop stop-color="#4E54C8"/>
<stop offset="1" stop-color="#8F94FB"/>
</linearGradient>
<linearGradient id="paint7_linear" x1="36.7345" y1="26.1423" x2="53.3347" y2="26.6891" gradientUnits="userSpaceOnUse">
<stop stop-color="#4E54C8"/>
<stop offset="1" stop-color="#8F94FB"/>
</linearGradient>
<linearGradient id="paint8_linear" x1="15.3132" y1="33.6867" x2="53.0632" y2="34.9302" gradientUnits="userSpaceOnUse">
<stop stop-color="#4E54C8"/>
<stop offset="1" stop-color="#8F94FB"/>
</linearGradient>
<linearGradient id="paint9_linear" x1="7.93661" y1="12.638" x2="20.3233" y2="13.046" gradientUnits="userSpaceOnUse">
<stop stop-color="#4E54C8"/>
<stop offset="1" stop-color="#8F94FB"/>
</linearGradient>
<clipPath id="clip0">
<rect width="60.1967" height="60" fill="white"/>
</clipPath>
</defs>
</svg>
