<svg width="50" height="50" viewBox="0 0 50 50" fill="none" xmlns="http://www.w3.org/2000/svg">
<path d="M11 29C13.2091 29 15 27.2091 15 25C15 22.7909 13.2091 21 11 21C8.79086 21 7 22.7909 7 25C7 27.2091 8.79086 29 11 29Z" fill="#FE6612"/>
<path d="M25 29C27.2091 29 29 27.2091 29 25C29 22.7909 27.2091 21 25 21C22.7909 21 21 22.7909 21 25C21 27.2091 22.7909 29 25 29Z" fill="#4A7CC9"/>
<path d="M39 29C41.2091 29 43 27.2091 43 25C43 22.7909 41.2091 21 39 21C36.7909 21 35 22.7909 35 25C35 27.2091 36.7909 29 39 29Z" fill="#2ECDB8"/>
</svg>
