<svg data-v-d3f97b9e="" xmlns="http://www.w3.org/2000/svg" viewBox="0 0 60.19672206190766 60"><!----><!----><!----><!----><g data-v-d3f97b9e="" id="37576241-e837-4eb0-beec-bff0683edfc7" transform="matrix(1.9672131538391113,0,0,1.9672131538391113,-1.3770484924316406,-1.377049446105957)" stroke="none" fill="white"><path d="M16 22.1c-3.4 0-6.1-2.7-6.1-6.1s2.7-6.1 6.1-6.1 6.1 2.7 6.1 6.1-2.7 6.1-6.1 6.1zm0-10.7c-2.5 0-4.6 2.1-4.6 4.6 0 2.5 2.1 4.6 4.6 4.6 2.5 0 4.6-2.1 4.6-4.6 0-2.5-2.1-4.6-4.6-4.6z"></path><path d="M15.3 6.1h1.5v4.5h-1.5z"></path><path d="M16 7.1c-1.8 0-3.2-1.4-3.2-3.2S14.2.7 16 .7s3.2 1.4 3.2 3.2-1.4 3.2-3.2 3.2zm0-4.9c-.9 0-1.7.8-1.7 1.7 0 .9.8 1.7 1.7 1.7.9 0 1.7-.8 1.7-1.7 0-.9-.8-1.7-1.7-1.7zM15.3 21.3h1.5v4.5h-1.5z"></path><path d="M16 31.2c-1.8 0-3.2-1.4-3.2-3.2 0-1.8 1.4-3.2 3.2-3.2s3.2 1.4 3.2 3.2c0 1.8-1.4 3.2-3.2 3.2zm0-4.8c-.9 0-1.7.8-1.7 1.7 0 .9.8 1.7 1.7 1.7.9 0 1.7-.8 1.7-1.7 0-1-.8-1.7-1.7-1.7zM6.1 15.3h4.5v1.5H6.1z"></path><path d="M3.9 19.2C2.1 19.2.7 17.8.7 16s1.4-3.2 3.2-3.2 3.2 1.4 3.2 3.2-1.4 3.2-3.2 3.2zm0-4.9c-.9 0-1.7.8-1.7 1.7 0 .9.8 1.7 1.7 1.7.9 0 1.7-.8 1.7-1.7 0-.9-.7-1.7-1.7-1.7zM21.3 15.3h4.5v1.5h-4.5z"></path><path d="M28.1 19.2c-1.8 0-3.2-1.4-3.2-3.2s1.4-3.2 3.2-3.2c1.8 0 3.2 1.4 3.2 3.2s-1.5 3.2-3.2 3.2zm0-4.9c-.9 0-1.7.8-1.7 1.7 0 .9.8 1.7 1.7 1.7.9 0 1.7-.8 1.7-1.7 0-.9-.8-1.7-1.7-1.7zM9.561 8.54l3.182 3.182-1.06 1.06L8.5 9.602z"></path><path d="M7.5 10.7c-.9 0-1.7-.3-2.3-.9-.6-.7-.9-1.5-.9-2.3s.3-1.7.9-2.3C6.4 4 8.5 4 9.7 5.2c.6.6.9 1.4.9 2.3s-.3 1.7-.9 2.3c-.6.5-1.4.9-2.2.9zm0-4.9c-.5 0-.9.2-1.2.5-.3.3-.5.7-.5 1.2s.2.8.5 1.2c.6.6 1.7.6 2.4 0 .3-.4.5-.8.5-1.2s-.2-.9-.5-1.2c-.4-.3-.8-.5-1.2-.5zM20.317 19.217L23.5 22.4l-1.06 1.061-3.182-3.182z"></path><path d="M24.5 27.7c-.9 0-1.7-.3-2.3-.9-1.2-1.2-1.2-3.3 0-4.5 1.2-1.2 3.3-1.2 4.5 0 1.2 1.2 1.2 3.3 0 4.5-.5.6-1.3.9-2.2.9zm0-4.9c-.5 0-.9.2-1.2.5-.7.7-.7 1.7 0 2.4.6.6 1.8.6 2.4 0 .7-.7.7-1.7 0-2.4-.3-.3-.7-.5-1.2-.5zM11.722 19.257l1.06 1.06L9.602 23.5l-1.06-1.06z"></path><path d="M7.5 27.7c-.9 0-1.7-.3-2.3-.9-.6-.6-.9-1.4-.9-2.3 0-.9.3-1.7.9-2.3 1.2-1.2 3.3-1.2 4.5 0 .6.6.9 1.4.9 2.3 0 .9-.3 1.7-.9 2.3-.6.6-1.4.9-2.2.9zm0-4.9c-.5 0-.9.2-1.2.5-.3.3-.5.7-.5 1.2s.2.9.5 1.2c.6.6 1.7.6 2.4 0 .3-.3.5-.7.5-1.2s-.2-.9-.5-1.2c-.4-.3-.8-.5-1.2-.5zM22.399 8.5l1.06 1.061-3.182 3.182-1.06-1.06z"></path><path d="M24.5 10.7c-.9 0-1.7-.3-2.3-.9-1.2-1.2-1.2-3.3 0-4.5 1.2-1.2 3.3-1.2 4.5 0 .6.6.9 1.4.9 2.3s-.3 1.7-.9 2.3c-.5.4-1.3.8-2.2.8zm0-4.9c-.5 0-.9.2-1.2.5-.7.7-.7 1.7 0 2.4.6.6 1.8.6 2.4 0 .7-.7.7-1.7 0-2.4-.3-.3-.7-.5-1.2-.5z"></path></g><!----></svg>