<svg width="61" height="60" viewBox="0 0 61 60" fill="none" xmlns="http://www.w3.org/2000/svg">
<g id="isolated-monochrome-black 5">
<g clip-path="url(#clip0)">
<g id="c6cf2749 3829 4d96 859c 9ea30598223d">
<path id="Vector" d="M42.1967 30.0112C42.1905 36.6998 36.8741 42.0063 30.1855 42.0001C23.497 41.9939 18.1905 36.6775 18.1967 29.9889C18.2029 23.3004 23.5193 17.9939 30.2078 18.0001C36.8964 18.0063 42.2029 23.3227 42.1967 30.0112ZM21.1475 29.9917C21.1429 34.9097 25.2703 39.0447 30.1883 39.0493C35.1063 39.0538 39.2413 34.9265 39.2459 30.0085C39.2504 25.0905 35.1231 20.9555 30.2051 20.9509C25.2871 20.9463 21.1521 25.0737 21.1475 29.9917Z" fill="url(#paint0_linear)"/>
<path id="Vector_2" d="M10.72 31.359L10.7228 28.4082L19.5752 28.4164L19.5725 31.3673L10.72 31.359Z" fill="url(#paint1_linear)"/>
<path id="Vector_3" d="M12.6885 29.9838C12.6852 33.5248 9.92853 36.2763 6.38755 36.273C2.84657 36.2698 0.0950279 33.5131 0.0983188 29.9721C0.10161 26.4311 2.85827 23.6796 6.39925 23.6829C9.94023 23.6862 12.6918 26.4428 12.6885 29.9838ZM3.04914 29.9749C3.04749 31.7454 4.6198 33.3206 6.39029 33.3222C8.16078 33.3239 9.73601 31.7516 9.73766 29.9811C9.7393 28.2106 8.167 26.6354 6.39651 26.6337C4.62602 26.6321 3.05078 28.2044 3.04914 29.9749ZM40.6216 31.3868L40.6244 28.436L49.4768 28.4442L49.4741 31.3951L40.6216 31.3868Z" fill="url(#paint2_linear)"/>
<path id="Vector_4" d="M60.0984 30.0279C60.0951 33.5689 57.3384 36.3204 53.7974 36.3171C50.2564 36.3138 47.5049 33.5572 47.5082 30.0162C47.5115 26.4752 50.2681 23.7237 53.8091 23.7269C57.3501 23.7302 60.1016 26.4869 60.0984 30.0279ZM50.6557 30.0191C50.6541 31.7896 52.2264 33.3648 53.9969 33.3665C55.7674 33.3681 57.3426 31.7958 57.3443 30.0253C57.3459 28.2548 55.7736 26.6796 54.0031 26.678C52.0359 26.6761 50.6574 28.2486 50.6557 30.0191ZM28.8016 49.4742L28.8098 40.6218L31.7606 40.6245L31.7524 49.477L28.8016 49.4742Z" fill="url(#paint3_linear)"/>
<path id="Vector_5" d="M36.4697 53.8092C36.4664 57.3502 33.7097 60.1017 30.1687 60.0984C26.6278 60.0951 23.8762 57.3385 23.8795 53.7975C23.8828 50.2565 26.6395 47.505 30.1804 47.5083C33.7214 47.5116 36.473 50.2682 36.4697 53.8092ZM26.8303 53.8003C26.8287 55.5707 28.401 57.146 30.1715 57.1476C31.942 57.1493 33.5172 55.577 33.5188 53.8065C33.5205 52.036 31.9482 50.4607 30.1777 50.4591C28.4072 50.4575 26.8322 51.833 26.8303 53.8003ZM28.8294 19.5726L28.8376 10.7201L31.7884 10.7229L31.7802 19.5753L28.8294 19.5726Z" fill="url(#paint4_linear)"/>
<path id="Vector_6" d="M36.5139 6.20267C36.5106 9.74365 33.7539 12.4952 30.213 12.4919C26.672 12.4886 23.9204 9.73195 23.9237 6.19097C23.927 2.64999 26.6837 -0.101552 30.2247 -0.0982609C33.7656 -0.0949699 36.517 2.8584 36.5139 6.20267ZM26.8745 6.19371C26.8729 7.9642 28.4452 9.53943 30.2157 9.54108C31.9862 9.54272 33.5614 7.97041 33.5631 6.19992C33.5647 4.42943 31.9924 2.8542 30.2219 2.85256C28.4514 2.85091 26.8762 4.42322 26.8745 6.19371ZM15.5095 42.6533L21.775 36.3995L23.8583 38.4867L17.5967 44.7425L15.5095 42.6533Z" fill="url(#paint5_linear)"/>
<path id="Vector_7" d="M19.7549 46.7117C19.7533 48.4822 19.1617 50.0554 17.9802 51.2347C16.6021 52.4137 15.0278 53.0024 13.454 53.0009C11.8802 52.9995 10.1103 52.4077 8.93107 51.2262C6.57261 48.8634 6.57645 44.7322 8.9393 42.3738C10.1207 41.1946 11.695 40.6059 13.4655 40.6075C15.236 40.6091 16.8092 41.2008 17.9885 42.3822C18.971 43.5634 19.7564 45.1379 19.7549 46.7117ZM10.1156 46.7028C10.1147 47.6864 10.5074 48.4736 11.097 49.0643C11.6866 49.655 12.4732 50.0492 13.4568 50.0501C14.4404 50.051 15.0309 49.6581 15.8183 49.0687C16.9998 47.8895 17.0018 45.7255 15.8227 44.3474C15.0364 43.7565 14.2499 43.3623 13.463 43.3616C12.6761 43.3609 11.6921 43.7534 11.1014 44.343C10.5105 45.1293 10.1163 45.9159 10.1156 46.7028ZM36.5331 21.5135L42.8006 15.2577L44.8859 17.3449L38.6204 23.5987L36.5331 21.5135Z" fill="url(#paint6_linear)"/>
<path id="Vector_8" d="M53.2286 13.3002C53.227 15.0707 52.6353 16.6439 51.4539 17.8231C49.0911 20.1816 44.9599 20.1777 42.6015 17.8149C40.243 15.452 40.2468 11.3209 42.6097 8.96244C44.9725 6.60398 49.1037 6.60782 51.4622 8.97067C52.6416 9.95537 53.2303 11.5297 53.2286 13.3002ZM43.5893 13.2912C43.5884 14.2748 43.9811 15.0621 44.5707 15.6528C45.9465 17.0311 47.9137 17.033 49.292 15.6572C50.4734 14.478 50.4756 12.1173 49.2964 10.9359C47.9206 9.55754 45.9534 9.55571 44.5751 10.9315C43.9844 11.5211 43.5902 12.3076 43.5893 13.2912ZM36.5961 38.4218L38.6833 36.3385L44.9391 42.6L42.8519 44.6833L36.5961 38.4218Z" fill="url(#paint7_linear)"/>
<path id="Vector_9" d="M53.1975 46.7428C53.1959 48.5133 52.6043 50.0865 51.4228 51.2657C50.2414 52.445 48.6671 53.0337 46.8966 53.032C45.1261 53.0304 43.5529 52.4387 42.3737 51.2573C40.0152 48.8945 40.019 44.7633 42.3819 42.4049C43.5633 41.2256 45.1376 40.6369 46.9081 40.6386C48.6786 40.6402 50.2518 41.2318 51.4311 42.4133C52.6103 43.5947 53.199 45.169 53.1975 46.7428ZM43.5582 46.7338C43.5573 47.7174 43.95 48.5047 44.5396 49.0954C45.1292 49.6861 45.9157 50.0803 46.8993 50.0812C47.8829 50.0821 48.6702 49.6894 49.2609 49.0998C50.4423 47.9206 50.4443 45.7566 49.2653 44.3785C48.6757 43.7878 47.8892 43.3936 46.9056 43.3927C45.922 43.3918 45.1347 43.7845 44.544 44.3741C43.9531 45.1604 43.5589 45.9469 43.5582 46.7338ZM15.4543 17.3982L17.5434 15.3149L23.7973 21.5804L21.7101 23.6637L15.4543 17.3982Z" fill="url(#paint8_linear)"/>
<path id="Vector_10" d="M19.786 13.2691C19.7844 15.0396 19.1927 16.6128 18.0113 17.792C15.6485 20.1505 11.5173 20.1467 9.15886 17.7838C6.80039 15.421 6.80423 11.2898 9.16708 8.93136C10.3485 7.75213 11.9228 7.16343 13.6933 7.16507C15.4638 7.16672 17.037 7.75834 18.2163 8.93977C19.0022 9.9241 19.7877 11.4986 19.786 13.2691ZM10.1467 13.2601C10.1458 14.2437 10.5385 15.031 11.1281 15.6217C12.5038 17 14.4711 17.0019 15.8494 15.6261C17.0308 14.4469 17.033 12.0862 15.8538 10.9048C14.478 9.52646 12.5108 9.52463 11.1325 10.9004C10.5418 11.49 10.1476 12.2765 10.1467 13.2601Z" fill="url(#paint9_linear)"/>
</g>
</g>
</g>
<defs>
<linearGradient id="paint0_linear" x1="18.1967" y1="29.9889" x2="42.1967" y2="30.0112" gradientUnits="userSpaceOnUse">
<stop stop-color="#D69E2E"/>
<stop offset="1" stop-color="#FAF089"/>
</linearGradient>
<linearGradient id="paint1_linear" x1="10.7214" y1="29.8836" x2="19.5739" y2="29.8919" gradientUnits="userSpaceOnUse">
<stop stop-color="#D69E2E"/>
<stop offset="1" stop-color="#FAF089"/>
</linearGradient>
<linearGradient id="paint2_linear" x1="0.0983188" y1="29.9721" x2="49.4753" y2="30.018" gradientUnits="userSpaceOnUse">
<stop stop-color="#D69E2E"/>
<stop offset="1" stop-color="#FAF089"/>
</linearGradient>
<linearGradient id="paint3_linear" x1="28.8135" y1="36.589" x2="60.0922" y2="36.618" gradientUnits="userSpaceOnUse">
<stop stop-color="#D69E2E"/>
<stop offset="1" stop-color="#FAF089"/>
</linearGradient>
<linearGradient id="paint4_linear" x1="23.8966" y1="35.4041" x2="36.4868" y2="35.4158" gradientUnits="userSpaceOnUse">
<stop stop-color="#D69E2E"/>
<stop offset="1" stop-color="#FAF089"/>
</linearGradient>
<linearGradient id="paint5_linear" x1="15.5284" y1="22.3143" x2="36.4989" y2="22.3338" gradientUnits="userSpaceOnUse">
<stop stop-color="#D69E2E"/>
<stop offset="1" stop-color="#FAF089"/>
</linearGradient>
<linearGradient id="paint6_linear" x1="7.17649" y1="34.1098" x2="44.8702" y2="34.1449" gradientUnits="userSpaceOnUse">
<stop stop-color="#D69E2E"/>
<stop offset="1" stop-color="#FAF089"/>
</linearGradient>
<linearGradient id="paint7_linear" x1="36.6077" y1="25.932" x2="53.2169" y2="25.9474" gradientUnits="userSpaceOnUse">
<stop stop-color="#D69E2E"/>
<stop offset="1" stop-color="#FAF089"/>
</linearGradient>
<linearGradient id="paint8_linear" x1="15.4387" y1="34.1579" x2="53.2092" y2="34.193" gradientUnits="userSpaceOnUse">
<stop stop-color="#D69E2E"/>
<stop offset="1" stop-color="#FAF089"/>
</linearGradient>
<linearGradient id="paint9_linear" x1="7.39248" y1="13.3559" x2="19.7859" y2="13.3675" gradientUnits="userSpaceOnUse">
<stop stop-color="#D69E2E"/>
<stop offset="1" stop-color="#FAF089"/>
</linearGradient>
<clipPath id="clip0">
<rect width="60.1967" height="60" fill="white"/>
</clipPath>
</defs>
</svg>
